<svg width="80" height="80" viewBox="0 0 80 80" fill="none" xmlns="http://www.w3.org/2000/svg">
<g clip-path="url(#clip0_10_10)">
<path d="M19.1055 12.8909C20.72 12.8909 22 13.3345 22.9455 14.2218C23.9055 15.0945 24.3855 16.2509 24.3855 17.6909V18.3455C24.3855 20.2945 23.6582 21.6109 22.2036 22.2945C23.44 22.6436 24.08 23.6545 24.1236 25.3273L24.2982 31H19.8909L19.8036 25.6545C19.7745 24.7382 19.4545 24.28 18.8436 24.28V31H14.4364V12.8909H19.1055ZM18.8436 20.5709H18.9745C19.5564 20.5709 19.8473 20.1782 19.8473 19.3927V17.7782C19.8473 16.9927 19.5564 16.6 18.9745 16.6H18.8436V20.5709ZM24.7149 20.8327C24.7149 17.9382 25.1659 15.8509 26.0677 14.5709C26.984 13.2764 28.344 12.6291 30.1477 12.6291C31.9513 12.6291 33.304 13.2764 34.2059 14.5709C35.1222 15.8509 35.5804 17.9382 35.5804 20.8327V23.0582C35.5804 25.9527 35.1222 28.0473 34.2059 29.3418C33.304 30.6218 31.9513 31.2618 30.1477 31.2618C28.344 31.2618 26.984 30.6218 26.0677 29.3418C25.1659 28.0473 24.7149 25.9527 24.7149 23.0582V20.8327ZM29.6459 26.8327C29.6459 27.2545 29.8131 27.4655 30.1477 27.4655C30.4822 27.4655 30.6495 27.2545 30.6495 26.8327V17.0582C30.6495 16.6364 30.4822 16.4255 30.1477 16.4255C29.8131 16.4255 29.6459 16.6364 29.6459 17.0582V26.8327ZM36.1928 19.3927C36.1928 17.0218 36.6365 15.2982 37.5238 14.2218C38.411 13.1309 39.7128 12.5855 41.4292 12.5855C44.6583 12.5855 46.2728 14.5491 46.2728 18.4764V19.6545H41.9528V17.0364C41.9528 16.6 41.7856 16.3818 41.451 16.3818C41.1165 16.3818 40.9492 16.6 40.9492 17.0364V26.68C40.9492 27.1164 41.131 27.3345 41.4947 27.3345C41.8583 27.3345 42.0401 27.1164 42.0401 26.68V24.8909H41.5601V21.4873H46.2292V31H42.7819L42.3238 29.7782C41.8874 30.68 41.1238 31.1309 40.0328 31.1309C37.4728 31.1309 36.1928 29.1964 36.1928 25.3273V19.3927Z" fill="white"/>
<path fill-rule="evenodd" clip-rule="evenodd" d="M74.8942 30.2064L74.5913 27.0848L74.4399 24.8768L69.8966 23.9632C69.3939 24.32 69.1121 24.52 68.6094 24.8768L69.1394 29.7496L74.2127 30.6632L74.8942 30.2064Z" fill="#5724FF"/>
<path fill-rule="evenodd" clip-rule="evenodd" d="M57.1894 43.0713C58.7998 43.5891 59.6084 45.9653 60.5829 45.8145C61.5574 45.6637 62.7119 44.9921 65.0161 44.7551C65.6885 45.0522 65.9491 45.3323 66.0886 46.1487C63.6892 47.9046 61.3525 49.1951 58.146 51.2002L57.5083 52.2744L59.2475 54.626V55.1776L59.7693 56.426V57.8195L57.5083 58.7195L58.5229 60.5195L53.2471 64.0614L50.1744 71.3485L46.6959 74.2226L44.2899 77.4742L44.7537 78.2L44 80H91.25V46.7583L89.6847 46.1487L87.5686 45.1325H87.0468L87.5686 41.9971L82.6696 40.8068L78.6403 41.2132L79.2201 39.239C79.7899 39.4675 80.3506 40.4874 80.6695 40.4874H80.9883C80.3758 39.7676 80.1396 39.3713 80.0607 38.6874L80.9883 36.1616C81.2684 37.0062 81.0253 37.62 80.6695 38.6874C80.6695 38.6874 81.6933 35.8938 81.829 36.1616C81.9647 36.4294 84.2249 38.7196 84.2079 38.1247C82.1715 35.8918 82.6645 32.6332 83.9808 33.1758C85.7068 34.7453 87.202 35.6364 87.6154 35.1553C86.8673 35.2713 85.4898 34.088 85.268 32.0337C84.6623 29.7496 85.268 29.9019 86.1767 32.5667L85.4195 30.0939C85.3086 29.5155 86.1453 30.0923 89.2498 30.0939C87.6322 29.788 86.8137 29.3225 85.5974 27.6843C88.449 27.452 88.8873 26.6127 90.6594 25.7436C87.4663 25.5112 86.3247 25.3936 83.7536 21.2984C84.0376 21.4122 88.1904 21.6166 87.5686 21.5005C86.9467 21.3843 84.3942 20.6984 82.3508 18.8586C80.4204 15.4974 78.6527 13.8432 73.4805 11.5715L62.5521 11.0199C60.0876 10.936 58.8946 11.06 58.146 12.5296C56.6996 12.3488 55.8912 12.1294 54.3776 13.6038C53.3509 14.1406 52.7783 14.3936 51.6238 16.9134C50.7644 17.5842 49.6752 18.9611 48.609 21.5005C47.3189 23.3325 46.4263 23.9942 44.4638 24.3746C46.5551 24.5004 47.497 24.1221 48.609 22.3424C47.764 24.9454 47.3711 26.4128 47.1597 29.0778L48.0583 33.8681C48.358 37.0686 48.1005 38.5891 46.377 40.4874L49.5077 37.381C49.7111 39.4707 49.4204 40.4328 48.609 41.9971C49.8271 41.0394 50.3492 40.2774 50.6382 38.0197C51.4019 38.4535 51.6881 38.7215 51.9716 39.239L52.2035 41.3874C51.0159 43.4842 50.9266 44.725 50.6424 48.6745L50.6382 48.7325L51.6238 56.426V48.7325L52.6383 53.9002V56.8034L50.8991 58.4873L53.2471 57.384L55.5661 51.4905L55.0443 56.426L56.2908 52.2744V43.0713C57.0567 43.8247 57.2913 44.4034 57.5083 45.597L57.1894 43.0713L54.6767 39.7235L53.768 36.069C52.9019 33.8585 52.1151 32.9093 50.8906 31.0439C50.6609 29.2769 50.7276 28.3854 51.1178 26.9325L53.3894 30.5871L55.0553 32.1098L56.3425 32.7189C54.7287 31.6968 54.1736 30.9398 53.3137 29.5212L57.5541 32.9473L56.2668 31.1201C57.9731 31.6938 58.9866 31.936 60.0529 33.4042L58.8413 31.0439L60.3558 31.8053L58.6142 29.7496L60.8101 30.2826C59.2462 29.8422 58.727 29.3357 58.0841 28.2269L57.9327 25.4859L59.4471 19.0904L64.369 23.6586L67.8522 25.4859C68.1145 27.0909 68.0993 27.991 67.625 29.5973C67.3931 30.9786 66.872 31.5821 65.732 32.5667L67.7764 30.6632C67.4571 32.7117 66.8745 33.6011 65.4291 34.9269L69.1394 33.2519L68.6094 40.8068L68.9123 45.597V46.7583L69.1394 33.2519L74.4399 34.3178C74.5354 34.0026 74.7229 34.0101 75.2728 34.3178L76.2572 33.8681L77.9231 31.5007L78.4531 30.2064C78.7379 28.7335 78.324 27.4106 78.1502 27.4655C77.9605 26.7913 77.6785 26.4778 76.6358 26.1166C75.5533 26.2532 74.9797 26.3582 74.5913 27.0848L74.8942 30.2064L74.2127 30.6632L69.1394 29.7496L68.6094 24.8768C69.1121 24.52 69.3939 24.32 69.8966 23.9632L74.4399 24.8768L74.5913 27.0848C74.9797 26.3582 75.5533 26.2532 76.6358 26.1166C77.6785 26.4778 77.9605 26.7913 78.1502 27.4655C78.324 27.4106 78.7379 28.7335 78.4531 30.2064L77.9231 31.5007L76.2572 33.8681L75.2728 34.3178C74.7229 34.0101 74.5354 34.0026 74.4399 34.3178L69.1394 33.2519L68.9123 46.7583V45.597L68.6094 40.8068L69.1394 33.2519L65.4291 34.9269C66.8745 33.6011 67.4571 32.7117 67.7764 30.6632L65.732 32.5667C66.872 31.5821 67.3931 30.9786 67.625 29.5973C68.0993 27.991 68.1145 27.0909 67.8522 25.4859L64.369 23.6586L59.4471 19.0904L57.9327 25.4859L58.0841 28.2269C58.727 29.3357 59.2462 29.8422 60.8101 30.2826L58.6142 29.7496L60.3558 31.8053L58.8413 31.0439L60.0529 33.4042C58.9866 31.936 57.9731 31.6938 56.2668 31.1201L57.5541 32.9473L53.3137 29.5212C54.1736 30.9398 54.7287 31.6968 56.3425 32.7189L55.0553 32.1098L53.3894 30.5871L51.1178 26.9325C50.7276 28.3854 50.6609 29.2769 50.8906 31.0439C52.1151 32.9093 52.9019 33.8585 53.768 36.069L54.6767 39.7235L57.1894 43.0713ZM51.47 48.1538L51.6238 45.3577L51.7993 46.0429L51.6238 48.7325L51.47 48.1538Z" fill="#5724FF"/>
<path d="M57.1894 43.0713C58.7998 43.5891 59.6084 45.9653 60.5829 45.8145C61.5574 45.6637 62.7119 44.9921 65.0161 44.7551C65.6885 45.0522 65.9491 45.3323 66.0886 46.1487C63.6892 47.9046 61.3525 49.1951 58.146 51.2002L57.5083 52.2744L59.2475 54.626V55.1776L59.7693 56.426V57.8195L57.5083 58.7195L58.5229 60.5195L53.2471 64.0614L50.1744 71.3485L46.6959 74.2226L44.2899 77.4742L44.7537 78.2L44 80H91.25V46.7583L89.6847 46.1487L87.5686 45.1325H87.0468L87.5686 41.9971L82.6696 40.8068L78.6403 41.2132L79.2201 39.239C79.7899 39.4675 80.3506 40.4874 80.6695 40.4874M57.1894 43.0713L57.5083 45.597C57.2913 44.4034 57.0567 43.8247 56.2908 43.0713V52.2744L55.0443 56.426L55.5661 51.4905L53.2471 57.384L50.8991 58.4873L52.6383 56.8034V53.9002L51.6238 48.7325M57.1894 43.0713L54.6767 39.7235L53.768 36.069C52.9019 33.8585 52.1151 32.9093 50.8906 31.0439C50.6609 29.2769 50.7276 28.3854 51.1178 26.9325L53.3894 30.5871L55.0553 32.1098L56.3425 32.7189C54.7287 31.6968 54.1736 30.9398 53.3137 29.5212L57.5541 32.9473L56.2668 31.1201C57.9731 31.6938 58.9866 31.936 60.0529 33.4042L58.8413 31.0439L60.3558 31.8053L58.6142 29.7496L60.8101 30.2826C59.2462 29.8422 58.727 29.3357 58.0841 28.2269L57.9327 25.4859L59.4471 19.0904L64.369 23.6586L67.8522 25.4859C68.1145 27.0909 68.0993 27.991 67.625 29.5973C67.3931 30.9786 66.872 31.5821 65.732 32.5667L67.7764 30.6632C67.4571 32.7117 66.8745 33.6011 65.4291 34.9269L69.1394 33.2519M80.6695 40.4874C80.9883 40.4874 80.9883 40.4874 80.9883 40.4874M80.6695 40.4874H80.9883M80.9883 40.4874C80.3758 39.7676 80.1396 39.3713 80.0607 38.6874L80.9883 36.1616C81.2684 37.0062 81.0253 37.62 80.6695 38.6874C80.6695 38.6874 81.6933 35.8938 81.829 36.1616C81.9647 36.4294 84.2249 38.7196 84.2079 38.1247C82.1715 35.8918 82.6645 32.6332 83.9808 33.1758C85.7068 34.7453 87.202 35.6364 87.6154 35.1553C86.8673 35.2713 85.4898 34.088 85.268 32.0337C84.6623 29.7496 85.268 29.9019 86.1767 32.5667L85.4195 30.0939C85.3086 29.5155 86.1453 30.0923 89.2498 30.0939C87.6322 29.788 86.8137 29.3225 85.5974 27.6843C88.449 27.452 88.8873 26.6127 90.6594 25.7436C87.4663 25.5112 86.3247 25.3936 83.7536 21.2984C84.0376 21.4122 88.1904 21.6166 87.5686 21.5005C86.9467 21.3843 84.3942 20.6984 82.3508 18.8586C80.4204 15.4974 78.6527 13.8432 73.4805 11.5715L62.5521 11.0199C60.0876 10.936 58.8946 11.06 58.146 12.5296C56.6996 12.3488 55.8912 12.1294 54.3776 13.6038C53.3509 14.1406 52.7783 14.3936 51.6238 16.9134C50.7644 17.5842 49.6752 18.9611 48.609 21.5005C47.3189 23.3325 46.4263 23.9942 44.4638 24.3746C46.5551 24.5004 47.497 24.1221 48.609 22.3424C47.764 24.9454 47.3711 26.4128 47.1597 29.0778L48.0583 33.8681C48.358 37.0686 48.1005 38.5891 46.377 40.4874M46.377 40.4874C47.5996 39.2743 48.2851 38.5941 49.5077 37.381M46.377 40.4874L49.5077 37.381M49.5077 37.381C49.7111 39.4707 49.4204 40.4328 48.609 41.9971C49.8271 41.0394 50.3492 40.2774 50.6382 38.0197C51.4019 38.4535 51.6881 38.7215 51.9716 39.239M51.9716 39.239C52.0622 40.078 52.113 40.5484 52.2035 41.3874M51.9716 39.239L52.2035 41.3874M52.2035 41.3874C51.0159 43.4842 50.9266 44.725 50.6424 48.6745M50.6382 48.7325L51.6238 56.426V48.7325M50.6382 48.7325L50.6424 48.6745M50.6382 48.7325C50.6396 48.7131 50.641 48.6938 50.6424 48.6745M51.6238 48.7325L51.47 48.1538L51.6238 45.3577L51.7993 46.0429L51.6238 48.7325ZM69.1394 33.2519L68.6094 40.8068L68.9123 45.597V46.7583L69.1394 33.2519ZM69.1394 33.2519L74.4399 34.3178C74.5354 34.0026 74.7229 34.0101 75.2728 34.3178L76.2572 33.8681L77.9231 31.5007L78.4531 30.2064C78.7379 28.7335 78.324 27.4106 78.1502 27.4655C77.9605 26.7913 77.6785 26.4778 76.6358 26.1166C75.5533 26.2532 74.9797 26.3582 74.5913 27.0848M74.5913 27.0848L74.4399 24.8768L69.8966 23.9632C69.3939 24.32 69.1121 24.52 68.6094 24.8768L69.1394 29.7496L74.2127 30.6632L74.8942 30.2064L74.5913 27.0848Z" stroke="#EDFF66" stroke-width="0.25"/>
<path d="M14.6982 45.7855C14.6982 41.0436 15.5855 37.5964 17.36 35.4436C19.1345 33.2618 21.7382 32.1709 25.1709 32.1709C31.6291 32.1709 34.8582 36.0982 34.8582 43.9527V46.3091H26.2182V41.0727C26.2182 40.2 25.8836 39.7636 25.2145 39.7636C24.5455 39.7636 24.2109 40.2 24.2109 41.0727V60.36C24.2109 61.2327 24.5745 61.6691 25.3018 61.6691C26.0291 61.6691 26.3927 61.2327 26.3927 60.36V56.7818H25.4327V49.9745H34.7709V69H27.8764L26.96 66.5564C26.0873 68.36 24.56 69.2618 22.3782 69.2618C17.2582 69.2618 14.6982 65.3927 14.6982 57.6545V45.7855ZM36.3544 46.3091C36.3544 41.5382 37.2417 37.9891 39.0163 35.6618C40.8199 33.3345 43.3653 32.1709 46.6526 32.1709C49.7944 32.1709 52.209 33.0145 53.8962 34.7018C55.5835 36.3891 56.4272 38.6873 56.4272 41.5964V44.04H47.7872V41.0727C47.7872 40.2582 47.4672 39.8509 46.8272 39.8509C46.1872 39.8509 45.8672 40.2582 45.8672 41.0727V47.9236C46.769 46.6727 48.1508 46.0473 50.0126 46.0473C52.0781 46.0473 53.7363 46.8182 54.9872 48.36C56.2381 49.9018 56.8635 52.1855 56.8635 55.2109V58.6145C56.8635 62.0473 55.9908 64.7382 54.2453 66.6873C52.4999 68.6364 49.9981 69.6109 46.7399 69.6109C39.8163 69.6109 36.3544 65.3345 36.3544 56.7818V46.3091ZM45.8672 60.8836C45.8672 61.6982 46.2017 62.1055 46.8708 62.1055C47.5399 62.1055 47.8744 61.6982 47.8744 60.8836V54.1636C47.8744 53.3491 47.5399 52.9418 46.8708 52.9418C46.2017 52.9418 45.8672 53.3491 45.8672 54.1636V60.8836ZM57.6826 32.7818H76.5335V40.0255L69.5516 69L60.3007 69.0436L67.3698 40.8982H57.6826V32.7818Z" fill="#EDFF66"/>
<path d="M-3.24005 48.7059C-3.24005 48.8422 -3.18589 48.973 -3.08949 49.0694C-2.99308 49.1658 -2.86233 49.2199 -2.72599 49.2199H3.13987C3.27621 49.2199 3.40696 49.1658 3.50337 49.0694C3.59977 48.973 3.65393 48.8422 3.65393 48.7059V44.2595C3.65393 44.1232 3.59977 43.9925 3.50337 43.896C3.40696 43.7996 3.27621 43.7455 3.13987 43.7455H-2.72599C-2.7935 43.7455 -2.86035 43.7588 -2.92272 43.7846C-2.98508 43.8104 -3.04175 43.8483 -3.08949 43.896C-3.13722 43.9438 -3.17509 44.0005 -3.20092 44.0628C-3.22676 44.1252 -3.24005 44.192 -3.24005 44.2595V48.7059Z" fill="#8E7B70"/>
<path d="M-0.517832 47.0311C-0.517843 47.0719 -0.509805 47.1124 -0.494179 47.1501C-0.478552 47.1879 -0.455644 47.2222 -0.426761 47.251C-0.397879 47.2799 -0.363589 47.3028 -0.32585 47.3185C-0.288112 47.3341 -0.247664 47.3421 -0.206818 47.3421H3.34279C3.38364 47.3421 3.42409 47.3341 3.46182 47.3185C3.49956 47.3028 3.53385 47.2799 3.56274 47.251C3.59162 47.2222 3.61453 47.1879 3.63015 47.1501C3.64578 47.1124 3.65382 47.0719 3.65381 47.0311V43.4815C3.65382 43.4406 3.64578 43.4002 3.63015 43.3625C3.61453 43.3247 3.59162 43.2904 3.56274 43.2615C3.53385 43.2327 3.49956 43.2098 3.46182 43.1941C3.42409 43.1785 3.38364 43.1705 3.34279 43.1705H-0.206818C-0.247664 43.1705 -0.288112 43.1785 -0.32585 43.1941C-0.363589 43.2098 -0.397879 43.2327 -0.426761 43.2615C-0.455644 43.2904 -0.478552 43.3247 -0.494179 43.3625C-0.509805 43.4002 -0.517843 43.4406 -0.517832 43.4815V47.0311Z" fill="#EDFF66"/>
<path d="M25.5619 50.8776C25.5772 50.8777 25.5921 50.8731 25.6049 50.8646C25.6176 50.8561 25.6275 50.8441 25.6334 50.8299C25.6392 50.8158 25.6408 50.8002 25.6378 50.7852C25.6348 50.7702 25.6275 50.7564 25.6166 50.7456L21.9268 47.0557C21.9123 47.0412 21.8926 47.033 21.8721 47.033C21.8515 47.033 21.8318 47.0412 21.8173 47.0557C21.8028 47.0702 21.7947 47.0899 21.7947 47.1104C21.7947 47.1309 21.8028 47.1506 21.8173 47.1651L25.5072 50.855C25.5143 50.8622 25.5229 50.8679 25.5322 50.8718C25.5416 50.8757 25.5517 50.8777 25.5619 50.8776Z" fill="#2B3B47"/>
<path d="M21.1078 49.0327H26.3261C26.3466 49.0327 26.3663 49.0246 26.3808 49.0101C26.3953 48.9956 26.4034 48.9759 26.4034 48.9554C26.4034 48.9349 26.3953 48.9152 26.3808 48.9007C26.3663 48.8862 26.3466 48.8781 26.3261 48.8781H21.1078C21.0873 48.8781 21.0676 48.8862 21.0531 48.9007C21.0386 48.9152 21.0305 48.9349 21.0305 48.9554C21.0305 48.9759 21.0386 48.9956 21.0531 49.0101C21.0676 49.0246 21.0873 49.0327 21.1078 49.0327Z" fill="#2B3B47"/>
<path d="M23.7169 45.6216C25.5552 45.6216 27.0507 47.1171 27.0507 48.9554C27.0507 50.7937 25.5552 52.2892 23.7169 52.2892C21.8786 52.2892 20.3831 50.7937 20.3831 48.9554C20.3831 47.1171 21.8787 45.6216 23.7169 45.6216ZM21.9905 48.9554C21.9899 49.3866 22.1513 49.8023 22.4428 50.1201L23.6395 48.9233V47.2309C22.722 47.2714 21.9905 48.0279 21.9905 48.9554ZM23.6395 49.1423L22.5522 50.2296C22.8504 50.503 23.2354 50.6624 23.6395 50.6799V49.1423ZM23.7943 48.7685L24.8817 47.6812C24.5835 47.4078 24.1985 47.2483 23.7943 47.2308V48.7685ZM25.4434 48.9554C25.4439 48.5242 25.2825 48.1085 24.9911 47.7906L23.7943 48.9874V50.6798C24.7119 50.6394 25.4434 49.8829 25.4434 48.9554Z" fill="#2B3B47"/>
<path d="M23.717 49.5882C23.3675 49.5882 23.0842 49.3049 23.0842 48.9554C23.0842 48.6059 23.3675 48.3226 23.717 48.3226C24.0665 48.3226 24.3498 48.6059 24.3498 48.9554C24.3498 49.3049 24.0665 49.5882 23.717 49.5882Z" fill="white"/>
<path d="M1.83612 48.375H14.9773L15.6149 51.0202C15.6149 51.0202 14.8883 51.6568 11.2538 51.6568H1.83604V48.375H1.83612Z" fill="#EDFF66"/>
<path d="M-4.41971 43.1281H-2.04651V42.8037C-2.04651 42.7127 -2.01037 42.6255 -1.94605 42.5612C-1.88173 42.4968 -1.7945 42.4607 -1.70354 42.4607H1.78217C1.87313 42.4607 1.96036 42.4968 2.02468 42.5612C2.089 42.6255 2.12514 42.7127 2.12514 42.8037V44.6796C6.60076 42.4415 13.0252 42.01 13.0252 42.6455C13.0252 43.486 12.2394 44.9179 13.2133 45.824H17.4869C18.1785 45.824 18.7726 46.2142 19.0805 46.7824C20.1519 46.8359 21.6134 46.8662 23.665 46.8662C29.8705 46.8662 33.1506 49.0952 33.1506 49.0952V49.8427H34.3521C34.395 49.8427 34.4361 49.8597 34.4664 49.89C34.4967 49.9203 34.5137 49.9614 34.5137 50.0043V51.0925C34.5137 51.1818 34.4414 51.2541 34.3521 51.2541H31.9862C31.9433 51.2541 31.9022 51.2371 31.8719 51.2068C31.8416 51.1765 31.8245 51.1354 31.8245 51.0925V49.9297H20.7396C17.6369 49.9297 16.573 51.3243 12.8497 51.3243C12.6307 51.3243 9.7092 51.2566 8.90482 51.1116C7.18373 50.8013 8.1217 49.8213 3.76256 49.8213L2.07404 49.8525C2.01287 49.9537 1.90295 50.022 1.77615 50.022H-4.41963C-4.5122 50.0219 -4.60096 49.9851 -4.66641 49.9197C-4.73186 49.8542 -4.76865 49.7655 -4.76869 49.6729V43.4771C-4.7687 43.4313 -4.75968 43.3859 -4.74215 43.3435C-4.72462 43.3012 -4.69891 43.2627 -4.6665 43.2303C-4.6341 43.1979 -4.59562 43.1722 -4.55328 43.1546C-4.51093 43.1371 -4.46554 43.1281 -4.41971 43.1281Z" fill="#5724FF"/>
<path d="M25.1863 50.0219C25.1863 51.463 26.3544 52.6311 27.7954 52.6311C29.2364 52.6311 30.4045 51.463 30.4045 50.0219C30.4045 48.5809 29.2364 47.4128 27.7954 47.4128C26.3544 47.4128 25.1863 48.581 25.1863 50.0219ZM2.12525 47.123C3.72634 47.123 5.02431 48.4209 5.02431 50.022C5.02431 51.6231 3.72634 52.9211 2.12525 52.9211C0.524153 52.9211 -0.773816 51.6231 -0.773816 50.022C-0.773816 48.4208 0.524153 47.123 2.12525 47.123Z" fill="white"/>
<path d="M29.5299 51.9774L29.7508 51.7565L26.0609 48.0667L25.8399 48.2876L29.5299 51.9774ZM25.1863 49.8657H30.4045V50.1782H25.1863V49.8657Z" fill="#EDFF66"/>
<path d="M17.1437 45.824H17.4869C18.1419 45.824 18.7092 46.1744 19.029 46.6941L20.7813 46.6738L23.2793 46.6723C24.194 46.6863 25.1705 46.7033 26.1498 46.7723C26.6399 46.809 27.1287 46.8569 27.6076 46.9211L29.0021 47.1067C29.4518 47.1586 29.8963 47.2348 30.3219 47.3019C30.7429 47.3826 31.1386 47.487 31.4987 47.5968C31.8565 47.7186 32.1846 47.8321 32.4634 47.9692C32.7495 48.0868 32.9816 48.234 33.1794 48.3397C33.5599 48.574 33.7867 48.7733 33.7727 48.7623C33.9179 48.8938 33.4418 49.4194 33.2966 49.288C33.2838 49.2764 33.1498 49.1451 32.8146 48.9153C32.6405 48.8144 32.4401 48.6726 32.1806 48.5543C31.9314 48.4179 31.6309 48.3007 31.3021 48.1729C30.9698 48.0567 30.6014 47.9429 30.2056 47.8498C29.8073 47.7711 29.3855 47.6773 28.9296 47.6118L27.5403 47.3819C27.071 47.3037 26.5925 47.2415 26.1127 47.1902C25.1514 47.0919 24.1809 47.044 23.2708 47.0012L20.7792 46.9237L18.9923 46.8878L14.6831 51.1969C14.1438 51.2757 13.5431 51.3242 12.8497 51.3242C12.7655 51.3242 12.282 51.3141 11.674 51.2937L17.1437 45.824Z" fill="white"/>
<path d="M27.6392 52.6311H27.9517V47.4129H27.6392V52.6311ZM25.8399 51.7564L29.5299 48.0666L29.7508 48.2875L26.0609 51.9774L25.8399 51.7564Z" fill="#EDFF66"/>
<path d="M27.7954 48.2955C26.8419 48.2955 26.0689 49.0685 26.0689 50.022C26.0689 50.9755 26.8419 51.7485 27.7954 51.7485C28.7489 51.7485 29.5219 50.9755 29.5219 50.022C29.5219 49.0685 28.7489 48.2955 27.7954 48.2955ZM27.7954 46.6882C29.6337 46.6882 31.1292 48.1837 31.1292 50.022C31.1292 51.8603 29.6337 53.3559 27.7954 53.3559C25.9571 53.3559 24.4616 51.8603 24.4616 50.022C24.4616 48.1837 25.9571 46.6882 27.7954 46.6882Z" fill="#2B3B47"/>
<path d="M1.96901 52.921H2.28151V47.123H1.96901V52.921ZM-0.035213 48.0825L0.185725 47.8615L4.28564 51.9615L4.06471 52.1824L-0.035213 48.0825Z" fill="#EDFF66"/>
<path d="M-0.773816 50.1782H5.02423V49.8657H-0.773816V50.1782ZM-0.0352211 51.9615L4.0647 47.8616L4.28564 48.0825L0.185717 52.1824L-0.0352211 51.9615Z" fill="#EDFF66"/>
<path d="M2.12525 48.1037C1.0658 48.1037 0.206966 48.9625 0.206966 50.022C0.206966 51.0814 1.0658 51.9402 2.12525 51.9402C3.1847 51.9402 4.04353 51.0814 4.04353 50.022C4.04353 48.9625 3.18462 48.1037 2.12525 48.1037ZM2.12525 46.3177C4.16775 46.3177 5.82947 47.9795 5.82947 50.022C5.82947 52.0645 4.16775 53.7262 2.12525 53.7262C0.082749 53.7262 -1.57897 52.0645 -1.57897 50.022C-1.57897 47.9795 0.0826707 46.3177 2.12525 46.3177Z" fill="#2B3B47"/>
<path d="M27.1626 50.022C27.1626 50.1898 27.2293 50.3507 27.3479 50.4694C27.4666 50.5881 27.6276 50.6548 27.7954 50.6548C27.9632 50.6548 28.1242 50.5881 28.2429 50.4694C28.3616 50.3507 28.4282 50.1898 28.4282 50.022C28.4282 49.8541 28.3616 49.6932 28.2429 49.5745C28.1242 49.4558 27.9632 49.3891 27.7954 49.3891C27.6276 49.3891 27.4666 49.4558 27.3479 49.5745C27.2293 49.6932 27.1626 49.8541 27.1626 50.022ZM2.12526 49.3189C2.31174 49.3189 2.49058 49.393 2.62244 49.5248C2.7543 49.6567 2.82838 49.8356 2.82838 50.022C2.82838 50.2085 2.7543 50.3874 2.62244 50.5192C2.49058 50.6511 2.31174 50.7252 2.12526 50.7252C1.93878 50.7252 1.75993 50.6511 1.62807 50.5192C1.49621 50.3874 1.42213 50.2085 1.42213 50.022C1.42213 49.8356 1.49621 49.6567 1.62807 49.5248C1.75993 49.393 1.93878 49.3189 2.12526 49.3189Z" fill="white"/>
<path d="M2.12507 44.7531C3.31643 44.754 4.47244 45.1579 5.40515 45.8991C5.51601 45.8756 5.63476 45.8552 5.7596 45.8295C5.96546 45.7907 6.18999 45.7427 6.42632 45.7114L7.16507 45.6647C7.4132 45.647 7.69695 45.6284 7.96476 45.6366L8.78202 45.6398C9.87742 45.6488 10.9729 45.6367 11.7944 45.6686C12.616 45.6963 13.1637 45.7556 13.1637 45.7556C13.168 45.756 13.172 45.758 13.1749 45.7612C13.1778 45.7644 13.1794 45.7686 13.1794 45.7729C13.1794 45.7772 13.1778 45.7814 13.1749 45.7846C13.172 45.7878 13.168 45.7898 13.1637 45.7902C13.1637 45.7902 12.616 45.8495 11.7944 45.8772C10.9729 45.9091 9.87749 45.897 8.78202 45.9059L7.96476 45.9092C7.69296 45.9034 7.44734 45.9228 7.18328 45.9431L6.44484 45.9957L5.80531 46.1057C5.60773 46.1419 5.42445 46.1621 5.26609 46.2102L4.8532 46.3162C4.62452 46.3756 4.50101 46.4221 4.50101 46.4221C4.47034 46.4341 4.43619 46.4333 4.40606 46.4201C4.37593 46.4069 4.35229 46.3822 4.34034 46.3515C4.3284 46.3209 4.32913 46.2867 4.34236 46.2566C4.3556 46.2264 4.38026 46.2028 4.41093 46.1909L4.41366 46.1898C4.41366 46.1898 4.54601 46.1366 4.77968 46.0699L5.10155 45.9792C4.23882 45.3445 3.19597 45.0018 2.12492 45.0011C-0.643209 45.0011 -2.89548 47.2534 -2.89548 50.0217H-3.14407C-3.14383 47.1165 -0.779929 44.7531 2.12507 44.7531Z" fill="#EDFF66"/>
<path d="M9.8418 51.2067C9.44633 51.1799 9.10781 51.1482 8.90469 51.1116C8.2193 50.9881 7.95406 50.7582 7.60961 50.5264L12.8456 45.2904C12.9217 45.4808 13.0382 45.661 13.2133 45.8239H15.2246" fill="white"/>
<path d="M31.9027 51.5344H34.6553C34.7297 51.5344 34.801 51.5049 34.8536 51.4523C34.9062 51.3997 34.9357 51.3284 34.9357 51.2541C34.9357 51.1797 34.9062 51.1084 34.8536 51.0558C34.801 51.0032 34.7297 50.9737 34.6553 50.9737H31.9027C31.8283 50.9737 31.757 51.0032 31.7044 51.0558C31.6518 51.1084 31.6223 51.1797 31.6223 51.2541C31.6223 51.3284 31.6518 51.3997 31.7044 51.4523C31.757 51.5049 31.8283 51.5344 31.9027 51.5344Z" fill="#EDFF66"/>
</g>
<defs>
<clipPath id="clip0_10_10">
<rect width="80" height="80" rx="40" fill="white"/>
</clipPath>
</defs>
</svg>
